<svg xmlns="http://www.w3.org/2000/svg" xmlns:xlink="http://www.w3.org/1999/xlink" width="400" height="400" viewBox="0 0 400 400"><defs><clipPath id="b"><rect width="400" height="400"/></clipPath></defs><g id="a" clip-path="url(#b)"><circle cx="200" cy="200" r="200" fill="#e4c550"/><g transform="translate(-455.171 -11.197)"><g transform="translate(551.671 85.635)"><g transform="translate(0 0)"><path d="M792.552,585.518,740.941,535.94l-6.479-39.546-24.8-18.768-3.485-35.011,37-8.187L689.053,334.4l66.21,122.453h37.289" transform="translate(-689.053 -334.395)" fill="#e4c550" stroke="#565656" stroke-linecap="round" stroke-linejoin="round" stroke-width="16"/><path d="M363.827.531l-43.8,28.319" transform="translate(-287.932 27.41)" fill="none" stroke="#565656" stroke-linecap="round" stroke-width="16"/><path d="M351.737,12.053l-8.707,39.18" transform="translate(-260.862 71.049)" fill="none" stroke="#565656" stroke-linecap="round" stroke-width="16"/></g><g transform="translate(103.5 0)"><path d="M689.053,585.518l51.611-49.578,6.479-39.546,24.8-18.768,3.485-35.011-37-8.187L792.552,334.4l-66.21,122.453H689.053" transform="translate(-689.053 -334.395)" fill="#e4c550" stroke="#565656" stroke-linecap="round" stroke-linejoin="round" stroke-width="16"/><path d="M320.026.531l43.8,28.319" transform="translate(-292.422 27.41)" fill="none" stroke="#565656" stroke-linecap="round" stroke-width="16"/><path d="M343.031,12.053l8.707,39.18" transform="translate(-330.407 71.049)" fill="none" stroke="#565656" stroke-linecap="round" stroke-width="16"/></g></g></g></g></svg>